{"title":"P!nk Ft. Lily Allen - True Love [Music Video] 1080p [Sbyky]","uid":9188649,"size":121296919,"categoryP":"video","categoryS":"music_videos","magnet":"?xt=urn:btih:4d625b1863c50e5b82d6eb87d13dd38040476ade&amp;dn=P%21nk+Ft.+Lily+Allen+-+True+Love+%5BMusic+Video%5D+1080p+%5BSbyky%5D&amp;tr=udp%3A%2F%2Ftracker.openbittorrent.com%3A80&amp;tr=udp%3A%2F%2Fopen.demonii.com%3A1337&amp;tr=udp%3A%2F%2Ftracker.coppersurfer.tk%3A6969&amp;tr=udp%3A%2F%2Fexodus.desync.com%3A6969","seeders":1,"leechers":2,"uploader":"Sbyky","files":1,"time":1384349260,"description":"[IMG]http://cdn.piczend.com/images/Xd9Is18z/1384277855_truelove.jpg[/IMG]\n\nGeneral\nComplete name                            : P!nk Ft. Lily Allen - True Love [Music Video] 1080p [Sbyky].MP4\nFormat                                   : MPEG-4\nFormat profile                           : Base Media\nCodec ID                                 : isom\nFile size                                : 116 MiB\nDuration                                 : 3mn 52s\nOverall bit rate mode                    : Variable\nOverall bit rate                         : 4 178 Kbps\nEncoded date                             : UTC 2013-09-11 10:08:01\nTagged date                              : UTC 2013-09-11 10:08:01\n\nVideo\nID                                       : 1\nFormat                                   : AVC\nFormat/Info                              : Advanced Video Codec\nFormat profile                           : &lt;a class=&quot;__cf_email__&quot; href=&quot;/cdn-cgi/l/email-protection&quot; data-cfemail=&quot;2b63424c436b671f051b&quot;&gt;[email&amp;#160;protected]&lt;/a&gt;&lt;script cf-hash='f9e31' type=&quot;text/javascript&quot;&gt;\n/* &lt;![CDATA[ */!function(){try{var t=&quot;currentScript&quot;in document?document.currentScript:function(){for(var t=document.getElementsByTagName(&quot;script&quot;),e=t.length;e--;)if(t[e].getAttribute(&quot;cf-hash&quot;))return t[e]}();if(t&amp;&amp;t.previousSibling){var e,r,n,i,c=t.previousSibling,a=c.getAttribute(&quot;data-cfemail&quot;);if(a){for(e=&quot;&quot;,r=parseInt(a.substr(0,2),16),n=2;a.length-n;n+=2)i=parseInt(a.substr(n,2),16)^r,e+=String.fromCharCode(i);e=document.createTextNode(e),c.parentNode.replaceChild(e,c)}}}catch(u){}}();/* ]]&gt; */&lt;/script&gt;\nFormat settings, CABAC                   : Yes\nFormat settings, ReFrames                : 2 frames\nCodec ID                                 : avc1\nCodec ID/Info                            : Advanced Video Coding\nDuration                                 : 3mn 52s\nBit rate                                 : 3 924 Kbps\nWidth                                    : 1 920 pixels\nHeight                                   : 1 080 pixels\nDisplay aspect ratio                     : 16:9\nFrame rate mode                          : Constant\nFrame rate                               : 25.000 fps\nColor space                              : YUV\nChroma subsampling                       : 4:2:0\nBit depth                                : 8 bits\nScan type                                : Progressive\nBits/(Pixel*Frame)                       : 0.076\nStream size                              : 109 MiB (94%)\nEncoded date                             : UTC 2013-09-11 10:08:01\nTagged date                              : UTC 2013-09-11 10:08:01\n\nAudio\nID                                       : 2\nFormat                                   : AAC\nFormat/Info                              : Advanced Audio Codec\nFormat profile                           : LC\nCodec ID                                 : 40\nDuration                                 : 3mn 52s\nBit rate mode                            : Variable\nBit rate                                 : 254 Kbps\nChannel(s)                               : 2 channels\nChannel positions                        : Front: L R\nSampling rate                            : 44.1 KHz\nCompression mode                         : Lossy\nDelay relative to video                  : -3s 600ms\nStream size                              : 7.02 MiB (6%)\nEncoded date                             : UTC 2013-09-11 10:07:43\nTagged date                              : UTC 2013-09-11 10:07:43\n\nShared By Sbyky\n[IMG]http://cdn.piczend.com/images/X3Ag13N3/1379453786_saythanks.gif[/IMG]\n[IMG]http://cdn.piczend.com/images/gGqhX2S8/1379453780_keepseeding.gif[/IMG]","torrent":{"xt":"urn:btih:4d625b1863c50e5b82d6eb87d13dd38040476ade","amp;dn":"P%21nk+Ft.+Lily+Allen+-+True+Love+%5BMusic+Video%5D+1080p+%5BSbyky%5D","amp;tr":["udp%3A%2F%2Ftracker.openbittorrent.com%3A80","udp%3A%2F%2Fopen.demonii.com%3A1337","udp%3A%2F%2Ftracker.coppersurfer.tk%3A6969","udp%3A%2F%2Fexodus.desync.com%3A6969"],"infoHash":"4d625b1863c50e5b82d6eb87d13dd38040476ade","infoHashBuffer":{"type":"Buffer","data":[77,98,91,24,99,197,14,91,130,214,235,135,209,61,211,128,64,71,106,222]},"announce":[],"urlList":[]}}